<svg data-v-fde0c5aa="" xmlns="http://www.w3.org/2000/svg" viewBox="0 0 300 300" class="iconAbove"><!----><defs data-v-fde0c5aa=""><!----></defs><rect data-v-fde0c5aa="" fill="transparent" x="0" y="0" width="300px" height="300px" class="logo-background-square"></rect><defs data-v-fde0c5aa=""><!----></defs><g data-v-fde0c5aa="" id="2e6cb333-3bf2-4a8f-9f43-7bf8039ea2b5" fill="#000000" transform="matrix(2.561576354679803,0,0,2.561576354679803,15.952709555038677,169.0157631559325)"><path d="M9.02 2.04L2.43 2.04L2.43 5.28L8.68 5.28L8.68 6.07L2.43 6.07L2.43 10.64L1.58 10.64L1.58 1.24L9.02 1.24L9.02 2.04ZM18.17 1.97L18.17 1.97Q17.97 1.91 17.62 1.84Q17.27 1.76 16.71 1.76L16.71 1.76Q15.95 1.76 15.27 1.95Q14.60 2.14 14.02 2.46Q13.45 2.78 12.95 3.21Q12.46 3.64 12.07 4.12L12.07 4.12L12.07 10.64L11.21 10.64L11.21 1.24L12.07 1.24L12.07 3.16Q12.52 2.69 13.06 2.29Q13.60 1.89 14.19 1.61Q14.79 1.33 15.44 1.17Q16.09 1.00 16.79 1.00L16.79 1.00Q17.03 1.00 17.22 1.02Q17.41 1.03 17.57 1.04Q17.73 1.06 17.88 1.08Q18.02 1.10 18.17 1.13L18.17 1.13L18.17 1.97ZM29.22 9.15L29.22 10.14Q28.64 10.32 28.15 10.45Q27.66 10.58 27.18 10.65Q26.70 10.73 26.21 10.77Q25.71 10.81 25.12 10.81L25.12 10.81Q23.73 10.81 22.62 10.47Q21.51 10.14 20.72 9.51Q19.94 8.89 19.52 8.00Q19.09 7.11 19.09 6.00L19.09 6.00Q19.09 4.93 19.50 4.03Q19.91 3.14 20.64 2.50Q21.37 1.85 22.39 1.50Q23.41 1.14 24.64 1.14L24.64 1.14Q25.92 1.14 26.91 1.48Q27.91 1.83 28.59 2.46Q29.28 3.10 29.63 4.00Q29.99 4.91 29.99 6.04L29.99 6.04L29.99 6.25L19.97 6.25Q20.05 7.13 20.41 7.83Q20.77 8.54 21.44 9.03Q22.11 9.52 23.08 9.79Q24.06 10.05 25.35 10.05L25.35 10.05Q25.91 10.05 26.48 9.97Q27.04 9.90 27.56 9.77Q28.08 9.65 28.51 9.48Q28.94 9.32 29.22 9.15L29.22 9.15ZM19.97 5.51L29.15 5.51Q29.10 4.79 28.83 4.14Q28.55 3.49 28.01 2.99Q27.47 2.49 26.63 2.19Q25.79 1.90 24.62 1.90L24.62 1.90Q23.52 1.90 22.70 2.19Q21.87 2.49 21.29 2.98Q20.72 3.48 20.39 4.13Q20.06 4.79 19.97 5.51L19.97 5.51ZM41.96 9.15L41.96 10.14Q41.38 10.32 40.89 10.45Q40.40 10.58 39.92 10.65Q39.44 10.73 38.95 10.77Q38.45 10.81 37.86 10.81L37.86 10.81Q36.48 10.81 35.36 10.47Q34.25 10.14 33.47 9.51Q32.68 8.89 32.26 8.00Q31.83 7.11 31.83 6.00L31.83 6.00Q31.83 4.93 32.24 4.03Q32.65 3.14 33.38 2.50Q34.11 1.85 35.13 1.50Q36.15 1.14 37.38 1.14L37.38 1.14Q38.66 1.14 39.66 1.48Q40.65 1.83 41.34 2.46Q42.02 3.10 42.38 4.00Q42.73 4.91 42.73 6.04L42.73 6.04L42.73 6.25L32.72 6.25Q32.79 7.13 33.15 7.83Q33.52 8.54 34.18 9.03Q34.85 9.52 35.82 9.79Q36.80 10.05 38.10 10.05L38.10 10.05Q38.65 10.05 39.22 9.97Q39.79 9.90 40.30 9.77Q40.82 9.65 41.25 9.48Q41.69 9.32 41.96 9.15L41.96 9.15ZM32.72 5.51L41.89 5.51Q41.84 4.79 41.57 4.14Q41.30 3.49 40.75 2.99Q40.21 2.49 39.37 2.19Q38.53 1.90 37.37 1.90L37.37 1.90Q36.26 1.90 35.44 2.19Q34.61 2.49 34.04 2.98Q33.46 3.48 33.13 4.13Q32.81 4.79 32.72 5.51L32.72 5.51ZM46.09 1.24L46.09 7.39Q46.09 8.03 46.19 8.48Q46.29 8.94 46.62 9.24Q46.95 9.53 47.57 9.67Q48.19 9.81 49.21 9.81L49.21 9.81L53.46 9.81L53.46 10.64L49.04 10.64Q47.91 10.64 47.18 10.46Q46.44 10.27 46.01 9.90Q45.58 9.52 45.40 8.93Q45.23 8.35 45.23 7.55L45.23 7.55L45.23 1.24L46.09 1.24ZM64.52 10.64L63.68 10.64L63.68 9.60Q63.18 9.86 62.56 10.09Q61.93 10.32 61.24 10.48Q60.55 10.64 59.81 10.73Q59.08 10.82 58.38 10.82L58.38 10.82Q57.46 10.82 56.73 10.66Q56.01 10.49 55.50 10.17Q55.00 9.84 54.72 9.36Q54.45 8.88 54.45 8.24L54.45 8.24Q54.45 7.62 54.77 7.13Q55.08 6.65 55.67 6.29Q56.26 5.93 57.09 5.68Q57.92 5.43 58.95 5.26Q59.97 5.09 61.16 4.97Q62.36 4.86 63.68 4.79L63.68 4.79L63.68 4.07Q63.68 3.63 63.51 3.29Q63.35 2.96 63.05 2.71Q62.76 2.46 62.36 2.29Q61.97 2.13 61.51 2.02Q61.04 1.92 60.54 1.88Q60.03 1.83 59.51 1.83L59.51 1.83Q58.82 1.83 58.26 1.90Q57.69 1.97 57.20 2.09Q56.70 2.21 56.25 2.37Q55.80 2.52 55.34 2.70L55.34 2.70L55.34 1.70Q56.29 1.45 57.37 1.26Q58.45 1.07 59.66 1.07L59.66 1.07Q60.68 1.07 61.57 1.25Q62.46 1.42 63.12 1.80Q63.77 2.19 64.15 2.79Q64.52 3.40 64.52 4.27L64.52 4.27L64.52 10.64ZM63.68 8.70L63.68 5.54Q61.44 5.67 59.86 5.89Q58.28 6.12 57.27 6.45Q56.27 6.77 55.80 7.21Q55.33 7.65 55.33 8.20L55.33 8.20Q55.33 8.65 55.56 9.00Q55.79 9.35 56.22 9.59Q56.65 9.82 57.26 9.94Q57.88 10.06 58.65 10.06L58.65 10.06Q59.10 10.06 59.58 10.01Q60.06 9.96 60.54 9.87Q61.02 9.78 61.48 9.65Q61.95 9.52 62.36 9.37Q62.77 9.22 63.11 9.05Q63.44 8.88 63.68 8.70L63.68 8.70ZM77.55 10.64L76.70 10.64L76.70 4.44Q76.70 3.66 76.49 3.15Q76.28 2.65 75.90 2.36Q75.51 2.06 74.96 1.95Q74.40 1.83 73.71 1.83L73.71 1.83Q72.91 1.83 72.14 2.03Q71.37 2.22 70.69 2.52Q70.01 2.82 69.43 3.18Q68.86 3.54 68.46 3.88L68.46 3.88L68.46 10.64L67.61 10.64L67.61 1.24L68.46 1.24L68.46 2.89Q68.94 2.59 69.52 2.26Q70.10 1.93 70.76 1.65Q71.43 1.37 72.19 1.20Q72.95 1.02 73.79 1.02L73.79 1.02Q74.74 1.02 75.44 1.25Q76.15 1.48 76.62 1.90Q77.09 2.32 77.32 2.92Q77.55 3.51 77.55 4.25L77.55 4.25L77.55 10.64ZM90.30 9.89L90.30 9.89Q89.81 10.10 89.33 10.27Q88.85 10.44 88.33 10.56Q87.81 10.68 87.23 10.75Q86.66 10.82 85.98 10.82L85.98 10.82Q85.15 10.82 84.38 10.68Q83.61 10.55 82.95 10.27Q82.28 10.00 81.74 9.59Q81.20 9.19 80.82 8.65Q80.43 8.11 80.22 7.43Q80.01 6.75 80.01 5.95L80.01 5.95Q80.01 5.14 80.22 4.46Q80.43 3.79 80.82 3.25Q81.20 2.71 81.74 2.30Q82.28 1.89 82.95 1.62Q83.61 1.35 84.38 1.21Q85.14 1.07 85.98 1.07L85.98 1.07Q86.66 1.07 87.23 1.14Q87.81 1.21 88.33 1.33Q88.85 1.46 89.33 1.62Q89.81 1.79 90.30 2.00L90.30 2.00L90.30 3.02Q89.91 2.78 89.47 2.56Q89.02 2.34 88.51 2.17Q87.99 2.01 87.40 1.91Q86.82 1.82 86.15 1.82L86.15 1.82Q84.79 1.82 83.80 2.11Q82.81 2.41 82.16 2.94Q81.52 3.48 81.21 4.24Q80.90 5.00 80.90 5.95L80.90 5.95Q80.90 6.89 81.21 7.65Q81.52 8.41 82.16 8.94Q82.81 9.48 83.80 9.77Q84.79 10.06 86.15 10.06L86.15 10.06Q86.82 10.06 87.41 9.97Q88.01 9.87 88.54 9.71Q89.06 9.54 89.50 9.33Q89.94 9.11 90.30 8.87L90.30 8.87L90.30 9.89ZM102.31 9.15L102.31 10.14Q101.73 10.32 101.24 10.45Q100.75 10.58 100.27 10.65Q99.79 10.73 99.30 10.77Q98.80 10.81 98.21 10.81L98.21 10.81Q96.82 10.81 95.71 10.47Q94.60 10.14 93.81 9.51Q93.03 8.89 92.61 8.00Q92.18 7.11 92.18 6.00L92.18 6.00Q92.18 4.93 92.59 4.03Q93.00 3.14 93.73 2.50Q94.46 1.85 95.48 1.50Q96.50 1.14 97.73 1.14L97.73 1.14Q99.00 1.14 100.00 1.48Q101.00 1.83 101.68 2.46Q102.37 3.10 102.72 4.00Q103.08 4.91 103.08 6.04L103.08 6.04L103.08 6.25L93.06 6.25Q93.14 7.13 93.50 7.83Q93.86 8.54 94.53 9.03Q95.20 9.52 96.17 9.79Q97.15 10.05 98.44 10.05L98.44 10.05Q99.00 10.05 99.57 9.97Q100.13 9.90 100.65 9.77Q101.17 9.65 101.60 9.48Q102.03 9.32 102.31 9.15L102.31 9.15ZM93.06 5.51L102.24 5.51Q102.19 4.79 101.92 4.14Q101.64 3.49 101.10 2.99Q100.56 2.49 99.72 2.19Q98.88 1.90 97.71 1.90L97.71 1.90Q96.61 1.90 95.79 2.19Q94.96 2.49 94.38 2.98Q93.81 3.48 93.48 4.13Q93.15 4.79 93.06 5.51L93.06 5.51Z"></path></g><defs data-v-fde0c5aa=""><linearGradient data-v-fde0c5aa="" gradientTransform="rotate(25)" id="024fa4b7-4985-4e31-bbe5-67ee4b4f3cc1" x1="0%" y1="0%" x2="100%" y2="0%"><stop data-v-fde0c5aa="" offset="0%" stop-color="#410FF8" stop-opacity="1"></stop><stop data-v-fde0c5aa="" offset="100%" stop-color="#410FF8" stop-opacity="1"></stop></linearGradient></defs><g data-v-fde0c5aa="" id="c12ffdb2-83b5-4d16-b626-87e8fc0f9d35" stroke="none" fill="url(#024fa4b7-4985-4e31-bbe5-67ee4b4f3cc1)" transform="matrix(0.7860511102144178,0,0,0.7860511102144178,124.84639762212262,103.27006749056093)"><path d="M64 .975a.99.99 0 00-.031-.195.988.988 0 00-.035-.15 1.024 1.024 0 00-.123-.209c-.02-.028-.029-.061-.052-.088l-.011-.009a1.015 1.015 0 00-.221-.172C63.5.137 63.484.113 63.459.1a1.012 1.012 0 00-.294-.087A1 1 0 0063.053 0a.993.993 0 00-.288.021 1.129 1.129 0 00-.108.046 1.013 1.013 0 00-.22.106c-.007.005-.016.006-.023.011L.408 45.743A1 1 0 001 47.549h18.125a1 1 0 00.72-.307l33.5-34.78-8.892 12.116L21.286 48.63a3.014 3.014 0 01-2.161.919h-1V59.2a1 1 0 001.763.648l7.933-9.359 15.455 13.27a1 1 0 00.651.241.979.979 0 00.278-.04 1 1 0 00.678-.666L63.962 1.286a.955.955 0 00.017-.14A.987.987 0 0064 .975z"></path></g><!----></svg>